<svg width="255" height="205" viewBox="0 0 255 205" fill="none" xmlns="http://www.w3.org/2000/svg">
<g clip-path="url(#clip0_43_251)">
<g filter="url(#filter0_d_43_251)">
<path d="M236.322 289.184L236.32 289.184C236.289 289.172 236.257 289.161 236.226 289.152C233.994 288.252 231.828 286.833 229.59 285.241C229.05 284.856 228.505 284.461 227.954 284.061C226.226 282.808 224.444 281.516 222.612 280.411C220.166 278.78 217.835 277.846 215.474 277.421L215.469 277.42C212.693 276.933 210.022 277.353 207.366 278.15C205.417 278.734 203.414 279.544 201.366 280.372C200.653 280.66 199.934 280.95 199.211 281.234L199.209 281.235C194.301 283.171 190.07 282.337 186.63 279.772C183.14 277.17 180.401 272.732 178.731 267.396L178.728 267.387C177.479 263.532 176.637 259.542 176.354 255.594C175.984 250.376 175.661 243.69 176.389 237.571C177.124 231.396 178.898 226.087 182.469 223.315L182.47 223.315C182.974 222.923 183.782 222.774 185.004 222.919C186.207 223.062 187.594 223.461 189.084 223.914C189.235 223.96 189.386 224.007 189.539 224.053C190.856 224.456 192.235 224.878 193.497 225.112C194.877 225.367 196.352 225.447 197.55 224.836L197.555 224.834C199.841 223.655 202.024 222.382 204.129 221.153C205.123 220.574 206.099 220.004 207.062 219.459C210.091 217.743 213.032 216.238 216.143 215.26C221.117 213.733 225.255 209.713 229.135 205.777C229.398 205.51 229.66 205.243 229.921 204.977C233.595 201.239 237.087 197.687 241.053 195.889C241.617 195.643 242.349 195.668 243.332 196.022C244.315 196.375 245.403 197.003 246.58 197.755C246.983 198.013 247.402 198.288 247.827 198.568C248.6 199.077 249.393 199.599 250.149 200.05C251.328 200.753 252.572 201.382 253.775 201.617L253.826 201.627L253.879 201.631L253.915 201.634C254.29 201.667 254.763 201.709 255.222 201.67C255.707 201.63 256.257 201.496 256.748 201.114C262.581 196.907 269.024 197.545 274.794 200.9L274.794 200.9C276.44 201.856 278.137 203.205 279.497 205.663C279.508 205.684 279.51 205.687 279.513 205.695C279.518 205.704 279.525 205.719 279.558 205.782C279.591 205.845 279.648 205.949 279.734 206.058C279.735 206.06 279.736 206.063 279.738 206.066C279.745 206.08 279.753 206.098 279.767 206.128C279.776 206.147 279.789 206.173 279.802 206.202C279.808 206.213 279.813 206.224 279.819 206.235C281.574 209.778 282.206 214.461 281.971 218.897C281.735 223.353 280.635 227.355 279.121 229.571L279.116 229.578C277.656 231.754 275.896 233.01 273.977 234.169C273.615 234.387 273.243 234.604 272.864 234.825C271.264 235.759 269.544 236.762 267.982 238.225L267.967 238.24L267.952 238.256C267.031 239.196 266.053 240.202 265.228 241.42C263.013 244.46 261.425 248.124 260.13 251.863C259.247 254.412 258.485 257.049 257.757 259.566C257.42 260.732 257.09 261.872 256.759 262.966L256.759 262.966C256.326 264.4 255.897 265.978 255.446 267.635C254.59 270.785 253.655 274.224 252.461 277.521C250.637 282.558 248.328 286.879 245.124 288.965C242.356 290.736 239.266 290.318 236.322 289.184ZM236.685 289.43C236.978 289.736 237.022 290.125 236.903 290.453C236.903 290.453 236.903 290.453 236.903 290.453C237.019 290.122 236.973 289.731 236.685 289.43ZM235.96 290.121L235.96 290.122L235.96 290.121Z" stroke="url(#paint0_linear_43_251)" stroke-width="2"/>
<path d="M247.386 298.975L247.382 298.977C243.729 301.207 239.77 300.421 236.157 298.8C233.404 297.534 230.775 295.673 228.062 293.637C227.582 293.276 227.098 292.909 226.611 292.54C224.377 290.847 222.071 289.099 219.648 287.605C216.701 285.697 213.989 284.524 211.146 284.026L211.144 284.025C207.913 283.465 204.774 283.903 201.604 284.813C198.888 285.593 196.091 286.739 193.172 287.935C192.704 288.127 192.232 288.321 191.756 288.514L191.755 288.515C185.467 291.084 180.097 290.008 175.763 286.718C171.374 283.386 167.983 277.727 165.919 271.068C164.441 266.175 163.285 261.201 163.002 256.184L163.001 256.177L163 256.151C162.589 249.65 162.051 241.139 162.816 233.319C163.588 225.427 165.66 218.575 170.181 215.085C170.857 214.573 171.935 214.434 173.512 214.698C175.063 214.957 176.846 215.56 178.732 216.226C178.904 216.287 179.077 216.348 179.251 216.41C180.94 217.008 182.691 217.629 184.285 217.991C186.002 218.382 187.8 218.54 189.226 217.812C192.113 216.355 194.861 214.721 197.533 213.133C198.694 212.444 199.84 211.763 200.976 211.108C204.761 208.929 208.5 207.009 212.563 205.853C218.623 204.182 223.535 199.045 228.142 193.931C228.536 193.494 228.928 193.057 229.318 192.622C233.594 187.852 237.693 183.279 242.439 180.981L242.442 180.979C243.096 180.66 243.969 180.713 245.179 181.245C246.38 181.774 247.714 182.688 249.145 183.768C249.663 184.159 250.201 184.577 250.744 184.999C251.654 185.707 252.58 186.427 253.464 187.058C254.88 188.069 256.353 188.977 257.757 189.364L257.787 189.373L257.818 189.379C258.896 189.605 260.07 189.767 261.228 188.976L261.238 188.969L261.247 188.962C268.549 183.706 276.511 184.626 283.483 188.874L283.492 188.88L283.501 188.885C285.513 190.053 287.617 191.719 289.341 194.857L289.341 194.857C289.342 194.859 289.347 194.869 289.358 194.893C289.368 194.914 289.375 194.931 289.386 194.955C289.391 194.967 289.397 194.981 289.405 194.998L289.406 195.001C289.438 195.074 289.504 195.223 289.597 195.363L290.429 194.809L289.597 195.363C289.609 195.381 289.62 195.401 289.639 195.438C289.649 195.46 289.66 195.482 289.676 195.517C289.691 195.549 289.711 195.591 289.733 195.636C291.966 200.162 292.788 206.05 292.53 211.581C292.27 217.135 290.933 222.128 289.037 224.907L289.033 224.913C287.191 227.655 284.963 229.209 282.562 230.655C282.184 230.883 281.798 231.11 281.407 231.339C279.35 232.549 277.162 233.834 275.2 235.799C273.955 237.014 272.818 238.326 271.841 239.836C269.232 243.632 267.335 248.202 265.786 252.859C264.683 256.173 263.743 259.58 262.853 262.806C262.494 264.107 262.143 265.379 261.792 266.604C261.294 268.313 260.797 270.222 260.27 272.246C259.247 276.175 258.112 280.535 256.636 284.702C254.394 291.029 251.493 296.493 247.386 298.975Z" stroke="url(#paint1_linear_43_251)" stroke-width="2"/>
<path d="M152.481 275.016C150.671 269.096 149.281 263.026 148.881 256.836C148.866 256.626 148.85 256.413 148.835 256.198C147.737 240.799 145.911 215.191 157.431 206.226L206.971 291.616C199.973 290.378 193.285 293.158 185.311 296.472L184.891 296.646C168.881 303.316 157.441 291.096 152.481 275.016ZM152.481 275.016L153.437 274.724C153.437 274.723 153.437 274.723 153.436 274.723M152.481 275.016L153.436 274.722C153.436 274.722 153.436 274.722 153.436 274.723M153.436 274.723C155.881 282.648 159.893 289.511 165.153 293.571C170.353 297.585 176.836 298.918 184.506 295.723L184.507 295.723C184.697 295.644 184.887 295.565 185.076 295.486C192.92 292.225 199.855 289.342 207.145 290.632L207.158 290.634L207.158 290.634C210.349 291.243 213.551 292.592 216.913 294.853C219.657 296.652 222.269 298.71 224.817 300.717C225.397 301.174 225.973 301.628 226.547 302.075C229.666 304.509 232.724 306.77 235.959 308.412C240.363 310.589 245.159 311.656 249.529 309.151C254.589 306.183 258.09 299.591 260.741 292.02C262.531 286.907 263.878 281.532 265.078 276.747C265.651 274.462 266.19 272.311 266.728 270.387L266.729 270.383C267.227 268.626 267.722 266.777 268.23 264.879C269.182 261.322 270.181 257.589 271.342 253.949C273.129 248.345 275.339 242.826 278.463 238.225L278.466 238.22C279.61 236.555 280.888 234.945 282.343 233.51C284.657 231.153 287.251 229.634 289.719 228.187C290.181 227.917 290.639 227.648 291.09 227.378C293.975 225.645 296.692 223.757 298.96 220.37L298.96 220.369C301.194 217.039 302.767 211.011 303.055 204.327C303.343 197.667 302.346 190.559 299.634 185.108L300.529 184.663L299.634 185.108C299.572 184.983 299.546 184.925 299.529 184.886C299.513 184.847 299.504 184.828 299.478 184.783L300.335 184.269L299.478 184.783C299.413 184.676 299.362 184.572 299.326 184.499L299.308 184.461C299.278 184.4 299.26 184.363 299.24 184.327C297.138 180.487 294.63 178.477 292.194 176.967C284.044 171.935 274.437 170.669 265.785 176.898L265.763 176.914L265.74 176.928C264.498 177.724 263.129 177.673 261.706 177.088C260.143 176.506 258.474 175.311 256.84 173.986C255.902 173.226 254.908 172.364 253.923 171.511C253.205 170.889 252.491 170.27 251.809 169.7C250.135 168.299 248.561 167.106 247.147 166.409C245.716 165.704 244.688 165.621 243.926 166.022L243.919 166.025C240.893 167.586 238.079 169.986 235.332 172.822C233.087 175.139 230.923 177.705 228.735 180.301C228.242 180.885 227.748 181.471 227.252 182.056C221.925 188.332 216.276 194.562 209.232 196.471L209.225 196.473C204.251 197.784 199.728 200.083 195.174 202.728C193.659 203.609 192.131 204.533 190.582 205.471C187.515 207.327 184.362 209.235 181.051 210.954L181.047 210.956C179.401 211.8 177.286 211.569 175.225 211.043C173.302 210.552 171.179 209.733 169.116 208.937C168.921 208.862 168.726 208.787 168.532 208.712C166.249 207.835 164.07 207.026 162.173 206.648C160.245 206.265 158.891 206.387 158.037 207.022C152.565 211.286 150.175 219.706 149.363 229.28C148.579 238.537 149.292 248.544 149.834 256.151C149.849 256.358 149.864 256.562 149.878 256.765L149.879 256.772C150.272 262.857 151.64 268.846 153.436 274.723Z" stroke="url(#paint2_linear_43_251)" stroke-width="2"/>
<path d="M172.671 202.894C169.824 204.356 164.812 202.311 159.738 200.24C154.156 197.962 148.5 195.654 145.571 197.954C132.423 208.129 134.53 237.54 135.817 255.489C135.863 256.133 135.908 256.761 135.951 257.374C136.461 264.624 138.091 271.824 140.091 278.644M172.671 202.894L173.125 203.785C173.126 203.785 173.127 203.784 173.127 203.784M172.671 202.894L173.128 203.784C173.128 203.784 173.128 203.784 173.127 203.784M172.671 202.894C176.554 200.915 180.228 198.679 183.857 196.468C190.941 192.155 197.857 187.944 205.831 185.954L245.692 150.991M173.127 203.784C171.265 204.74 168.835 204.431 166.432 203.764C164.216 203.148 161.764 202.147 159.367 201.169C159.11 201.064 158.853 200.959 158.598 200.855C155.921 199.766 153.349 198.759 151.115 198.284C148.841 197.8 147.217 197.933 146.189 198.741L146.183 198.745C142.982 201.222 140.689 204.955 139.09 209.526C137.491 214.096 136.608 219.44 136.182 225.055C135.388 235.518 136.194 246.765 136.815 255.428C136.861 256.068 136.905 256.693 136.949 257.304L136.949 257.304C137.452 264.454 139.061 271.576 141.049 278.357M173.127 203.784C177.043 201.788 180.773 199.518 184.42 197.297C186.138 196.251 187.838 195.216 189.531 194.226C194.856 191.112 200.183 188.394 206.073 186.924L206.076 186.924C210.156 185.892 213.789 183.532 217.146 180.528C220.5 177.526 223.632 173.833 226.689 170.074C227.306 169.316 227.919 168.556 228.53 167.799C230.969 164.775 233.385 161.781 235.891 159.075C239.019 155.697 242.229 152.835 245.692 150.991M141.049 278.357C141.048 278.355 141.048 278.353 141.047 278.351L140.091 278.644M141.049 278.357C141.049 278.359 141.05 278.361 141.051 278.363L140.091 278.644M141.049 278.357C143.87 287.549 148.503 295.612 154.637 300.412C160.711 305.164 168.318 306.775 177.374 303.002M140.091 278.644C145.801 297.254 158.971 311.754 177.761 303.924M177.761 303.924L177.371 303.003C177.372 303.003 177.373 303.002 177.374 303.002M177.761 303.924C187.141 299.954 194.891 296.714 202.951 298.224C206.461 298.874 210.021 300.354 213.701 302.894M177.761 303.924L177.376 303.001C177.376 303.001 177.375 303.002 177.374 303.002M177.374 303.002C186.68 299.063 194.724 295.666 203.135 297.241C206.797 297.92 210.485 299.46 214.265 302.068M214.265 302.068C214.263 302.067 214.262 302.066 214.26 302.065L213.701 302.894M214.265 302.068C214.266 302.069 214.268 302.07 214.269 302.071L213.701 302.894M214.265 302.068C217.401 304.183 220.376 306.638 223.288 309.042C223.884 309.533 224.477 310.023 225.068 310.507C228.535 313.344 231.955 316.006 235.605 317.959C235.655 317.976 235.704 317.997 235.752 318.022M213.701 302.894L286.071 237.374M235.752 318.022C235.752 318.022 235.752 318.022 235.753 318.022L235.287 318.907L235.751 318.021C235.751 318.021 235.751 318.022 235.752 318.022ZM235.752 318.022C240.849 320.687 246.522 322.242 251.79 319.283C257.763 315.911 261.865 308.192 264.942 299.363C267.039 293.342 268.603 286.997 269.98 281.406C270.617 278.822 271.214 276.399 271.806 274.243C272.27 272.524 272.732 270.74 273.206 268.913C275.99 258.175 279.157 245.961 285.238 236.821M285.238 236.821C285.238 236.821 285.238 236.821 285.239 236.82L286.071 237.374M285.238 236.821C285.237 236.822 285.237 236.823 285.236 236.823L286.071 237.374M285.238 236.821C286.547 234.837 288.097 232.884 289.732 231.268M286.071 237.374C287.351 235.434 288.861 233.534 290.441 231.974M289.732 231.268C289.731 231.27 289.729 231.272 289.727 231.274L290.441 231.974M289.732 231.268C292.44 228.506 295.456 226.726 298.335 225.026C298.866 224.713 299.392 224.402 299.911 224.088C303.269 222.059 306.425 219.857 309.027 215.922L309.031 215.917C311.645 212.024 313.45 204.979 313.772 197.18C314.093 189.405 312.931 181.089 309.804 174.698C309.755 174.598 309.711 174.492 309.683 174.422L309.67 174.391C309.636 174.31 309.619 174.274 309.607 174.252L310.477 173.76M289.732 231.268C289.734 231.266 289.736 231.264 289.738 231.263L290.441 231.974M290.441 231.974L301.125 164.998M310.477 173.76C310.426 173.669 310.383 173.573 310.341 173.477C310.302 173.389 310.263 173.301 310.217 173.217C307.647 168.503 304.596 166.058 301.661 164.154M310.477 173.76L245.231 150.104C248.429 148.475 253.181 152.887 257.859 157.228C260.905 160.056 263.919 162.853 266.451 163.934C267.811 164.524 269.081 164.664 270.051 163.934M310.477 173.76L309.607 174.252C309.531 174.118 309.472 173.986 309.434 173.898L309.432 173.893C309.387 173.792 309.364 173.74 309.339 173.696C306.876 169.178 303.971 166.846 301.125 164.998M301.661 164.154C291.971 158.124 280.491 156.404 270.051 163.934M301.661 164.154L301.117 164.993C301.119 164.995 301.122 164.997 301.125 164.998M301.661 164.154L301.133 165.003C301.13 165.001 301.128 165 301.125 164.998M270.051 163.934L270.636 164.745C270.639 164.743 270.641 164.741 270.644 164.74C270.647 164.737 270.649 164.735 270.652 164.733L270.051 163.934ZM245.692 150.991C246.551 150.558 247.735 150.709 249.389 151.621C251.015 152.517 252.827 154.004 254.745 155.727C255.527 156.429 256.338 157.181 257.153 157.938C258.285 158.988 259.427 160.047 260.513 160.993C262.394 162.631 264.294 164.1 266.056 164.853C266.055 164.852 266.054 164.852 266.053 164.851L245.692 150.991Z" stroke="url(#paint3_linear_43_251)" stroke-width="2"/>
<path d="M253.909 329.345L253.919 329.339C260.861 325.548 265.539 316.709 269.01 306.618C271.341 299.843 273.069 292.703 274.598 286.387C275.342 283.316 276.038 280.44 276.733 277.896C277.299 275.803 277.861 273.623 278.437 271.388C281.559 259.279 285.097 245.556 291.86 235.213C293.338 232.913 295.07 230.773 296.96 228.821C296.96 228.821 296.96 228.821 296.96 228.821L297.678 229.517C300.634 226.464 303.925 224.524 307.206 222.589C311.707 219.936 316.193 217.291 319.778 211.797L253.909 329.345ZM253.909 329.345C247.953 332.689 241.306 330.779 235.542 327.622C231.373 325.292 227.487 322.18 223.541 318.904C223.07 318.513 222.599 318.12 222.126 317.726C218.655 314.832 215.11 311.876 211.326 309.367C207.05 306.469 202.975 304.705 198.845 303.954M253.909 329.345L198.845 303.954M164.625 196.927C169.146 194.62 173.429 191.984 177.616 189.407C179.567 188.207 181.497 187.019 183.421 185.883C189.513 182.286 195.618 179.159 202.421 177.53L202.427 177.528C207.028 176.396 211.111 173.711 214.877 170.266C218.642 166.823 222.146 162.566 225.571 158.221C226.275 157.329 226.975 156.433 227.673 155.54C230.392 152.06 233.089 148.61 235.892 145.489C239.412 141.571 243.037 138.246 246.972 136.108C247.977 135.572 249.338 135.769 251.211 136.866C253.051 137.945 255.096 139.727 257.254 141.781C258.115 142.601 259.001 143.471 259.894 144.348C261.189 145.62 262.496 146.903 263.749 148.054C265.863 149.996 267.993 151.728 269.975 152.619L164.623 196.928C164.624 196.927 164.624 196.927 164.625 196.927ZM164.625 196.927C162.551 197.995 159.808 197.624 157.055 196.825C154.471 196.074 151.603 194.857 148.797 193.666C148.553 193.563 148.31 193.459 148.067 193.357C144.993 192.055 142.032 190.837 139.469 190.234C136.855 189.618 134.99 189.725 133.837 190.633L133.833 190.636C130.156 193.503 127.552 197.821 125.756 203.093C123.96 208.362 122.993 214.519 122.546 220.972C121.76 232.327 122.59 244.457 123.249 254.081C123.34 255.405 123.427 256.681 123.506 257.902L123.507 257.905C124.02 266.142 125.839 274.28 128.273 282.1L128.275 282.104C131.476 292.56 136.761 301.848 143.794 307.384C150.764 312.869 159.512 314.726 169.935 310.268L169.943 310.264C180.497 305.856 189.473 302.118 198.845 303.954M164.625 196.927L198.845 303.954" stroke="url(#paint4_linear_43_251)" stroke-width="2"/>
<path d="M235.455 337.202C235.411 337.167 235.364 337.134 235.313 337.105L235.312 337.104C230.674 334.458 226.369 330.982 222.019 327.324C221.401 326.804 220.781 326.281 220.16 325.755C216.434 322.604 212.639 319.396 208.605 316.616C203.885 313.267 199.316 311.314 194.83 310.454L194.826 310.453C184.42 308.508 174.396 312.529 162.693 317.475L162.69 317.476C150.872 322.52 141.001 320.383 133.16 314.158C125.254 307.88 119.351 297.387 115.768 285.664L115.767 285.658C113.023 276.86 110.983 267.7 110.36 258.399L235.455 337.202ZM235.455 337.202C241.858 340.898 249.307 343.046 256.157 339.376C264.006 335.118 269.285 325.144 273.18 313.801C275.854 306.014 277.816 297.781 279.535 290.57C280.314 287.301 281.043 284.241 281.766 281.529M235.455 337.202L281.766 281.528C281.766 281.529 281.766 281.529 281.766 281.529M281.766 281.529C282.393 279.156 283.016 276.677 283.657 274.133C285.046 268.612 286.513 262.784 288.257 257.062C290.809 248.689 293.984 240.437 298.462 233.503L298.467 233.496C300.185 230.889 301.973 228.472 304.064 226.32M281.766 281.529L304.064 226.32M304.064 226.32C307.502 222.742 311.358 220.467 315.077 218.274C315.717 217.896 316.353 217.521 316.982 217.142C321.29 214.546 325.381 211.722 328.757 206.645C332.076 201.577 334.349 192.514 334.743 182.514C335.136 172.537 333.648 161.829 329.63 153.515L330.531 153.08L329.63 153.515C329.593 153.437 329.548 153.357 329.488 153.248L329.481 153.236C329.426 153.137 329.356 153.013 329.292 152.881C329.26 152.816 329.22 152.745 329.165 152.65C329.116 152.564 329.046 152.446 328.983 152.326L329.867 151.859L328.983 152.326C325.897 146.486 322.057 143.413 318.417 141.004C306.58 133.446 292.509 131.171 279.576 140.45C277.835 141.768 275.823 141.242 274.036 140.4L274.027 140.396C271.839 139.339 269.47 137.322 267.104 135.055C265.72 133.729 264.28 132.258 262.85 130.799C261.844 129.772 260.843 128.75 259.871 127.788C257.47 125.411 255.192 123.342 253.148 122.085C251.061 120.801 249.553 120.562 248.451 121.178C244.077 123.629 240.054 127.435 236.152 131.905C233.098 135.405 230.157 139.265 227.196 143.153C226.373 144.233 225.549 145.316 224.72 146.393C220.925 151.324 217.045 156.138 212.873 160.006C208.699 163.876 204.173 166.858 199.07 168.05L199.068 168.05C191.348 169.84 184.43 173.361 177.565 177.412C175.33 178.731 173.091 180.113 170.831 181.507C166.196 184.368 161.471 187.283 156.509 189.825M304.064 226.32L156.508 189.826C156.509 189.826 156.509 189.825 156.509 189.825M156.509 189.825C154.226 191.002 151.176 190.567 148.08 189.633C145.168 188.754 141.93 187.339 138.753 185.951C138.486 185.834 138.219 185.717 137.952 185.601C134.483 184.088 131.125 182.663 128.215 181.94C125.25 181.203 123.092 181.283 121.745 182.326M156.509 189.825L121.745 182.326M121.745 182.326C117.584 185.554 114.658 190.445 112.654 196.415M121.745 182.326L112.654 196.415M110.03 253.661C110.147 255.31 110.259 256.893 110.36 258.399L110.03 253.661ZM110.03 253.661C109.267 242.893 108.308 229.357 109.124 216.671M110.03 253.661L109.124 216.671M109.124 216.671C109.594 209.362 110.652 202.384 112.654 196.415M109.124 216.671L112.654 196.415" stroke="url(#paint5_linear_43_251)" stroke-width="2"/>
<path d="M235.102 346.717L235.1 346.716C235.038 346.679 234.973 346.649 234.907 346.627C229.858 343.619 225.176 339.759 220.472 335.76C219.949 335.315 219.426 334.869 218.901 334.422C214.683 330.823 210.413 327.181 205.879 324.098C200.659 320.446 195.702 318.269 190.748 317.338C179.393 315.132 168.403 319.38 155.469 324.911C142.2 330.55 131.181 328.166 122.46 321.22C113.672 314.22 107.151 302.525 103.178 289.479C100.212 279.657 97.962 269.485 97.2286 259.122C97.1007 257.195 96.9533 255.15 96.799 253.009C95.9493 241.218 94.8901 226.521 95.708 212.712C96.1909 204.559 97.3265 196.767 99.5248 190.105C101.724 183.441 104.962 177.98 109.603 174.392L109.608 174.388C111.138 173.189 113.578 173.117 116.884 173.96C120.135 174.788 123.884 176.409 127.747 178.127C128.055 178.264 128.364 178.401 128.673 178.539C132.202 180.111 135.788 181.709 139.011 182.709C142.452 183.777 145.806 184.275 148.297 182.99C153.855 180.14 159.114 176.868 164.273 173.659C166.765 172.109 169.233 170.573 171.701 169.106C179.32 164.578 187.021 160.646 195.712 158.676L195.715 158.675C201.336 157.383 206.31 154.079 210.893 149.767C215.475 145.456 219.728 140.079 223.889 134.561C224.802 133.351 225.71 132.135 226.617 130.92C229.861 126.574 233.086 122.254 236.441 118.336C240.731 113.328 245.168 109.058 250.012 106.312C251.25 105.617 252.936 105.918 255.237 107.387C257.489 108.826 259.998 111.178 262.635 113.87C263.724 114.982 264.844 116.162 265.969 117.347C267.519 118.98 269.079 120.624 270.578 122.111C273.176 124.688 275.766 126.977 278.149 128.207C280.175 129.273 282.368 129.674 284.189 128.35C298.381 118.117 313.985 120.667 327.128 129.09C331.129 131.7 335.379 135.201 338.84 141.722L339.723 141.253L338.84 141.722C338.915 141.862 338.973 141.965 339.022 142.051C339.095 142.179 339.147 142.27 339.201 142.396C339.27 142.56 339.347 142.707 339.411 142.826C339.426 142.855 339.441 142.882 339.454 142.908C339.501 142.996 339.538 143.065 339.574 143.139C344.044 152.319 345.717 164.199 345.3 175.274C344.883 186.373 342.376 196.458 338.675 202.091C334.929 207.788 330.376 210.936 325.596 213.815C324.893 214.238 324.183 214.657 323.469 215.078C319.35 217.506 315.093 220.015 311.308 223.98L311.3 223.988L311.292 223.996C309.07 226.432 306.994 229.056 305.1 231.999L305.099 232.002C300.166 239.71 296.677 248.869 293.869 258.159C291.989 264.376 290.402 270.703 288.894 276.71C288.153 279.663 287.431 282.538 286.704 285.285L286.704 285.285C285.916 288.27 285.12 291.65 284.268 295.269C282.389 303.25 280.236 312.397 277.281 321.045C272.976 333.641 267.094 344.75 258.273 349.427L258.267 349.43C250.679 353.511 242.202 350.941 235.102 346.717Z" stroke="url(#paint6_linear_43_251)" stroke-width="2"/>
<path d="M282.461 115.988C279.88 114.616 277.059 112.06 274.217 109.172C272.58 107.508 270.88 105.675 269.188 103.85C267.951 102.516 266.719 101.188 265.52 99.9346C262.632 96.9154 259.878 94.2701 257.407 92.6487C254.882 90.9918 253.021 90.6375 251.654 91.4307L251.648 91.4338C246.336 94.4729 241.486 99.2134 236.81 104.77C233.168 109.096 229.671 113.867 226.156 118.663C225.155 120.029 224.153 121.397 223.145 122.757C218.617 128.869 213.992 134.813 208.998 139.56C204.002 144.308 198.576 147.92 192.428 149.282L192.428 149.282C182.82 151.407 174.312 155.76 165.907 160.764C163.256 162.342 160.606 163.992 157.934 165.655C152.182 169.235 146.328 172.879 140.137 176.016C138.769 176.721 137.169 176.918 135.476 176.803C133.78 176.689 131.925 176.259 129.994 175.646C126.442 174.519 122.482 172.722 118.578 170.951C118.248 170.802 117.918 170.652 117.589 170.503C113.329 168.574 109.184 166.747 105.587 165.798C101.931 164.833 99.1964 164.875 97.4732 166.207C92.3543 170.187 88.797 176.238 86.3923 183.605C83.9881 190.97 82.76 199.577 82.2501 208.571C81.3937 223.675 82.5671 239.723 83.5091 252.607C83.6897 255.077 83.8618 257.431 84.0095 259.639L84.0095 259.64C84.7727 271.207 87.3412 282.357 90.5983 293.054L90.5985 293.055C94.9468 307.361 102.121 320.276 111.797 328.013C121.406 335.697 133.544 338.334 148.125 332.028L148.126 332.028C162.291 325.917 174.217 321.324 186.56 323.896C191.865 324.937 197.309 327.3 203.037 331.241C208.185 334.739 212.968 338.886 217.687 342.978C218.126 343.358 218.564 343.739 219.003 344.118C224.172 348.59 229.303 352.923 234.887 356.319L234.897 356.325C234.927 356.343 234.954 356.363 234.98 356.383C242.74 361.165 252.038 363.994 260.539 359.569C265.389 357.039 269.447 352.717 272.894 347.253C276.339 341.791 279.139 335.242 281.497 328.334C284.713 318.907 287.068 308.942 289.124 300.24C290.091 296.148 290.991 292.336 291.885 288.99C292.659 286.018 293.426 282.905 294.215 279.704C295.85 273.076 297.576 266.077 299.636 259.194C302.697 248.972 306.526 238.892 311.979 230.437C314.025 227.206 316.266 224.259 318.835 221.679C322.978 217.315 327.643 214.553 332.172 211.87C332.944 211.413 333.713 210.958 334.474 210.498C339.726 207.322 344.745 203.848 348.877 197.576C352.985 191.339 355.732 180.131 356.156 167.825C356.578 155.553 354.681 142.398 349.696 132.291C349.595 132.109 349.526 131.946 349.476 131.828L349.465 131.802C349.411 131.674 349.376 131.596 349.324 131.51L349.308 131.483L349.294 131.455C345.426 123.984 340.671 120.062 336.22 117.186M282.461 115.988C282.461 115.988 282.46 115.988 282.46 115.988L282.932 115.106L282.462 115.989C282.462 115.989 282.462 115.988 282.461 115.988ZM282.461 115.988C284.722 117.197 287.037 117.691 289.075 116.302L289.085 116.295L289.096 116.287C304.747 105.023 321.892 107.969 336.22 117.186M336.22 117.186C336.22 117.187 336.22 117.187 336.221 117.187L336.76 116.348L336.219 117.186C336.219 117.186 336.22 117.186 336.22 117.186ZM234.367 356.176C233.987 356.176 233.689 356.374 233.519 356.648C233.517 356.647 233.516 356.646 233.515 356.646C233.678 356.373 233.971 356.176 234.367 356.176ZM235.185 356.592C235.353 356.817 235.401 357.088 235.353 357.342C235.396 357.087 235.345 356.815 235.185 356.592Z" stroke="url(#paint7_linear_43_251)" stroke-width="2"/>
<path d="M234.666 365.93L234.666 365.931C243.118 371.234 253.447 374.573 262.668 369.759L262.669 369.758C267.976 366.995 272.413 362.272 276.177 356.308C279.94 350.347 282.997 343.199 285.565 335.664C289.122 325.231 291.706 314.182 293.948 304.595C294.953 300.298 295.889 296.294 296.813 292.771M234.666 365.93L297.781 293.025M234.666 365.93C234.636 365.911 234.605 365.894 234.573 365.879C228.54 362.114 223 357.379 217.439 352.489C216.867 351.986 216.295 351.481 215.722 350.975C210.72 346.565 205.658 342.102 200.227 338.268L200.223 338.265C194.085 333.983 188.257 331.396 182.473 330.284C169.007 327.646 156.247 332.553 140.829 339.125L140.825 339.127C124.799 346.033 111.511 343.121 101.019 334.699C90.4587 326.222 82.6662 312.102 77.9375 296.534L77.9368 296.532C74.3626 284.864 71.6817 272.651 70.8083 260.027C70.6396 257.533 70.4413 254.868 70.2329 252.066C69.1893 238.04 67.8911 220.591 68.7804 204.163C69.3136 194.314 70.6317 184.884 73.2413 176.82C75.8514 168.754 79.7291 162.129 85.3304 157.788C87.2487 156.323 90.276 156.308 94.2757 157.386C98.217 158.448 102.756 160.474 107.409 162.608C107.783 162.779 108.158 162.951 108.533 163.124C112.786 165.078 117.089 167.055 120.949 168.309C123.053 168.992 125.07 169.476 126.91 169.617C128.748 169.758 130.476 169.562 131.951 168.818L131.958 168.814C138.573 165.414 144.834 161.494 150.989 157.639C154.016 155.744 157.016 153.866 160.021 152.072C169.182 146.605 178.477 141.868 189.003 139.582L189.004 139.582C195.644 138.13 201.506 134.209 206.907 129.032C212.305 123.856 217.306 117.36 222.204 110.669C223.32 109.144 224.431 107.61 225.54 106.077C229.314 100.862 233.072 95.6693 236.983 90.9542C242.041 84.857 247.29 79.6425 253.043 76.2896M234.666 365.93L252.541 75.425M296.813 292.771L297.781 293.025M296.813 292.771C296.813 292.771 296.813 292.772 296.813 292.772L297.781 293.025M296.813 292.771C297.698 289.389 298.574 285.838 299.475 282.186C301.221 275.106 303.06 267.647 305.242 260.3C308.555 249.145 312.689 238.129 318.576 228.84L318.58 228.834L318.584 228.828C320.812 225.419 323.21 222.174 326.038 219.253M297.781 293.025C298.673 289.615 299.552 286.05 300.454 282.391C304.841 264.602 309.775 244.595 319.421 229.375C321.631 225.995 323.991 222.805 326.761 219.945M326.038 219.253C326.038 219.254 326.037 219.255 326.036 219.256L326.761 219.945M326.038 219.253C326.04 219.252 326.041 219.251 326.042 219.249L326.761 219.945M326.038 219.253C330.566 214.491 335.629 211.496 340.548 208.587C341.4 208.083 342.248 207.582 343.087 207.074C348.798 203.622 354.257 199.834 358.764 192.938L358.764 192.937C363.208 186.15 366.189 173.912 366.642 160.481C367.095 147.089 365.027 132.722 359.571 121.693M326.761 219.945C331.185 215.29 336.118 212.371 341.039 209.459C347.672 205.533 354.284 201.62 359.601 193.485C368.781 179.465 371.581 143.675 360.451 121.215M359.571 121.693C359.579 121.705 359.586 121.717 359.593 121.729L360.451 121.215M359.571 121.693C359.566 121.682 359.56 121.67 359.555 121.659L360.451 121.215M359.571 121.693C359.371 121.354 359.212 121.006 359.076 120.703L359.033 120.606C358.904 120.318 358.794 120.073 358.666 119.839C354.514 112.231 349.56 108.172 344.87 105.07M360.451 121.215C360.256 120.89 360.1 120.542 359.944 120.194C359.818 119.912 359.691 119.63 359.544 119.36C355.289 111.563 350.197 107.394 345.421 104.235M345.421 104.235L344.875 105.073C344.874 105.072 344.872 105.071 344.87 105.07M345.421 104.235C329.671 93.985 310.541 90.595 292.981 103.215M345.421 104.235L344.869 105.069C344.87 105.069 344.87 105.07 344.87 105.07M344.87 105.07C329.347 94.9693 310.687 91.7244 293.569 104.023M292.981 103.215L293.575 104.019C293.573 104.021 293.571 104.022 293.569 104.023M292.981 103.215C291.331 104.435 289.241 104.115 286.941 102.775M292.981 103.215L293.564 104.027C293.566 104.026 293.568 104.025 293.569 104.023M293.569 104.023C291.434 105.597 288.861 105.049 286.447 103.644M286.941 102.775L286.456 103.65C286.453 103.648 286.45 103.646 286.447 103.644M286.941 102.775C282.789 100.477 277.85 95.0156 272.885 89.5262C265.233 81.0653 257.52 72.538 252.541 75.425M286.941 102.775L286.437 103.639C286.44 103.641 286.443 103.643 286.447 103.644M286.447 103.644C283.666 102.103 280.623 99.2671 277.548 96.0606C275.78 94.2177 273.947 92.1909 272.122 90.1731C270.777 88.6872 269.438 87.2062 268.132 85.8072C265.005 82.4566 262.018 79.5123 259.335 77.6973C256.594 75.8428 254.551 75.4157 253.043 76.2896M252.541 75.425L253.044 76.2889C253.044 76.2892 253.043 76.2894 253.043 76.2896M252.541 75.425L253.042 76.2901C253.042 76.2899 253.043 76.2898 253.043 76.2896" stroke="url(#paint8_linear_43_251)" stroke-width="2"/>
<path d="M264.892 379.778L264.897 379.775C270.689 376.801 275.519 371.69 279.607 365.234C283.693 358.78 287.003 351.036 289.777 342.876C293.618 331.576 296.396 319.606 298.8 309.245C299.876 304.607 300.877 300.292 301.866 296.503M264.892 379.778L302.833 296.755M264.892 379.778C254.8 385.033 243.645 381.343 234.54 375.584C234.507 375.557 234.473 375.531 234.436 375.508L234.435 375.508C227.9 371.36 221.919 366.212 215.905 360.927C215.45 360.527 214.995 360.126 214.539 359.724C208.991 354.841 203.377 349.9 197.305 345.674L197.299 345.67C190.639 341.098 184.467 338.407 178.207 337.105L178.2 337.104C163.773 334.215 150.066 339.35 133.409 346.506L133.403 346.508C116.009 354.107 101.602 350.942 90.2374 341.78C78.8028 332.561 70.3847 317.208 65.2805 300.374L65.2793 300.37C61.3537 287.617 58.3648 274.428 57.4814 260.71L56.4836 260.775L57.4814 260.71C57.2871 257.695 57.0495 254.445 56.7987 251.015C55.7031 236.026 54.3549 217.584 55.2559 200.18C55.8092 189.493 57.2095 179.252 60.0163 170.487C62.824 161.721 67.0147 154.507 73.0969 149.774C75.1731 148.162 78.469 148.158 82.8096 149.344C87.0868 150.513 92.0206 152.734 97.074 155.07C97.4733 155.254 97.8734 155.44 98.2739 155.625C102.902 157.768 107.582 159.936 111.775 161.311C114.057 162.06 116.239 162.59 118.225 162.747C120.21 162.905 122.067 162.696 123.645 161.897L123.647 161.896C130.894 158.209 137.748 153.918 144.495 149.694C147.703 147.686 150.886 145.693 154.075 143.788C164.021 137.846 174.123 132.688 185.571 130.243C192.733 128.721 199.047 124.494 204.858 118.882C210.668 113.27 216.042 106.209 221.306 98.9253C222.517 97.2509 223.721 95.5655 224.923 93.882C228.97 88.2165 233.001 82.573 237.201 77.448C242.646 70.8035 248.307 65.1171 254.528 61.4681C256.149 60.5276 258.357 61.0248 261.309 63.0715C264.196 65.0732 267.416 68.3021 270.785 71.9674C272.193 73.4996 273.636 75.1189 275.084 76.7434C277.052 78.9504 279.027 81.1669 280.935 83.1876C284.256 86.7059 287.533 89.8139 290.517 91.5223L290.526 91.5279L290.536 91.5332C293.153 92.955 295.743 93.6289 298.096 91.9842L298.106 91.9771C316.693 78.6451 336.797 82.3145 353.609 93.1734M264.892 379.778L297.523 91.1645M301.866 296.503C301.866 296.503 301.866 296.502 301.866 296.502L302.833 296.755M301.866 296.503C301.866 296.503 301.865 296.504 301.865 296.505L302.833 296.755M301.866 296.503C302.795 292.901 303.715 289.119 304.662 285.227C306.537 277.518 308.517 269.379 310.883 261.36C314.45 249.273 318.927 237.337 325.341 227.306L325.343 227.303C327.738 223.584 330.313 220.146 333.29 216.935L333.297 216.927C338.181 211.769 343.668 208.513 349.009 205.344C349.927 204.8 350.84 204.258 351.745 203.709C357.942 199.954 363.864 195.839 368.705 188.39L368.705 188.389C373.526 180.975 376.744 167.733 377.233 153.208C377.72 138.719 375.484 123.158 369.588 111.131M302.833 296.755C303.77 293.125 304.694 289.328 305.642 285.428C310.333 266.141 315.636 244.339 326.184 227.845C328.553 224.165 331.094 220.775 334.023 217.615C338.803 212.566 344.159 209.387 349.501 206.216C356.687 201.95 363.847 197.699 369.544 188.935C379.474 173.665 382.474 135.115 370.474 110.665M369.588 111.131C369.593 111.14 369.598 111.149 369.603 111.158L370.474 110.665M369.588 111.131C369.402 110.798 369.245 110.458 369.107 110.157L369.093 110.127C368.952 109.817 368.828 109.548 368.688 109.292C364.184 101.071 358.796 96.5688 353.609 93.1734M369.588 111.131C369.584 111.122 369.58 111.114 369.576 111.105L370.474 110.665M370.474 110.665C370.297 110.352 370.147 110.025 369.996 109.697C369.859 109.398 369.722 109.099 369.565 108.812C364.96 100.405 359.435 95.7914 354.154 92.3345M354.154 92.3345C337.124 81.3345 316.553 77.5145 297.523 91.1645M354.154 92.3345L353.606 93.1712C353.607 93.172 353.608 93.1727 353.609 93.1734M354.154 92.3345L353.611 93.1745C353.61 93.1741 353.61 93.1738 353.609 93.1734M297.523 91.1645C295.663 92.4645 293.554 92.0345 291.014 90.6545L297.523 91.1645Z" stroke="url(#paint9_linear_43_251)" stroke-width="2"/>
<path d="M234.219 385.124L234.224 385.127C244.017 391.514 256.18 395.504 267.041 389.955C273.291 386.749 278.5 381.237 282.906 374.281C287.31 367.328 290.876 358.987 293.862 350.2C298.042 337.9 301.048 324.854 303.638 313.614C304.755 308.763 305.796 304.248 306.819 300.275L306.819 300.274C307.86 296.256 308.887 292.029 309.945 287.678C311.928 279.524 314.016 270.934 316.494 262.462C320.3 249.449 325.059 236.587 331.86 225.743L331.863 225.739C334.422 221.704 337.268 217.935 340.424 214.525L340.43 214.518C345.663 208.968 351.555 205.477 357.301 202.073C358.29 201.488 359.274 200.904 360.25 200.314C366.92 196.277 373.307 191.84 378.517 183.772L378.518 183.771C383.67 175.807 387.121 161.531 387.641 145.881C388.159 130.27 385.754 113.497 379.388 100.552C379.289 100.385 379.191 100.2 379.105 100.036L379.059 99.951C378.98 99.8007 378.911 99.67 378.848 99.5574L378.837 99.5384L378.827 99.5189C373.958 89.9774 367.962 84.9373 362.083 81.1233L362.081 81.122C344.07 69.3745 322.348 65.4455 302.502 79.7359L302.492 79.743L302.482 79.7499C300.045 81.416 297.252 80.8427 294.445 79.2089C294.445 79.2088 294.445 79.2087 294.444 79.2086L294.948 78.3444C290.172 75.5681 284.477 69.0722 278.751 62.5423C269.896 52.4438 260.97 42.2639 255.268 45.6344L234.219 385.124ZM234.219 385.124C227.211 380.605 220.804 375.034 214.338 369.347C214.076 369.117 213.813 368.886 213.551 368.655C207.362 363.21 201.096 357.696 194.248 353.043C187.155 348.001 180.382 345.175 173.776 343.766L173.768 343.765C158.398 340.613 143.739 346.09 125.86 353.827L125.859 353.827C107.121 361.981 91.5884 358.534 79.3387 348.632C67.0199 338.674 57.9594 322.129 52.4751 304.036C48.3381 290.249 45.1285 276.037 44.1353 261.267L44.1352 261.266C43.9203 258.117 43.6614 254.727 43.3882 251.149C42.1505 234.942 40.619 214.889 41.5538 195.974C42.1241 184.435 43.6111 173.373 46.6217 163.912C49.6329 154.448 54.1436 146.661 60.7081 141.566C62.9791 139.821 66.5699 139.85 71.258 141.158C75.8819 142.449 81.2119 144.879 86.6615 147.427C87.0822 147.623 87.5035 147.821 87.9252 148.018C92.9279 150.361 97.9812 152.728 102.504 154.232C104.96 155.049 107.304 155.627 109.435 155.803C111.564 155.979 113.549 155.759 115.23 154.906L115.232 154.905C123.016 150.935 130.362 146.31 137.598 141.755C141.049 139.583 144.475 137.426 147.912 135.363C158.601 128.948 169.487 123.378 181.904 120.753C189.581 119.134 196.348 114.593 202.578 108.546C208.808 102.501 214.566 94.8843 220.206 87.0184C221.535 85.1653 222.857 83.2991 224.177 81.435C228.479 75.3608 232.765 69.3091 237.227 63.8069C243.055 56.6192 249.116 50.4575 255.778 46.4944L234.219 385.124Z" stroke="url(#paint10_linear_43_251)" stroke-width="2"/>
<path d="M233.453 395.563L233.453 395.564L233.453 395.563ZM233.453 395.563L233.454 395.563L233.453 395.563ZM234.003 394.726L233.994 394.72L233.985 394.714C233.968 394.703 233.951 394.693 233.934 394.684C226.479 389.799 219.689 383.816 212.869 377.696C212.415 377.289 211.96 376.88 211.506 376.472C205.13 370.745 198.688 364.957 191.677 359.992L191.673 359.989C184.064 354.66 176.91 351.6 169.834 350.119L169.83 350.118C153.402 346.747 137.676 352.501 118.67 360.781L118.669 360.781C98.4938 369.591 81.8199 365.925 68.6912 355.316C55.4917 344.65 45.8107 326.903 39.9361 307.488C35.5098 292.844 32.0598 277.501 30.9566 261.669C30.722 258.242 30.4374 254.543 30.1366 250.634C28.8048 233.325 27.1562 211.898 28.129 191.677C28.725 179.29 30.3038 167.41 33.5209 157.25C36.739 147.088 41.5716 138.725 48.621 133.269L48.6213 133.268C51.0796 131.364 54.9585 131.41 59.9914 132.835C64.9584 134.241 70.6836 136.881 76.5301 139.647C76.9924 139.866 77.4555 140.085 77.919 140.305C83.2767 142.844 88.6818 145.406 93.517 147.041C96.148 147.93 98.6553 148.561 100.931 148.758C103.204 148.956 105.317 148.726 107.102 147.819L107.104 147.819C115.391 143.587 123.222 138.66 130.943 133.802C134.687 131.447 138.405 129.108 142.137 126.872C153.611 119.997 165.312 114.033 178.653 111.247L178.654 111.247C186.82 109.537 194.017 104.69 200.645 98.2169C207.271 91.7447 213.396 83.5795 219.399 75.1361C220.819 73.1382 222.233 71.1254 223.645 69.1145C228.218 62.6009 232.778 56.1064 237.529 50.1964C243.743 42.4655 250.215 35.8238 257.342 31.5362C259.241 30.4096 261.812 31.039 265.196 33.4579C268.51 35.8259 272.204 39.633 276.06 43.941C277.691 45.7634 279.361 47.6872 281.034 49.6157C283.268 52.1896 285.509 54.7717 287.675 57.1319C291.474 61.2719 295.206 64.9191 298.586 66.9367L298.599 66.9437C301.499 68.6199 304.578 69.3954 307.124 67.5387C328.441 52.2186 351.681 56.4295 370.889 69.0732L370.898 69.0788C377.158 73.1081 383.551 78.4829 388.798 88.723C388.902 88.95 389.001 89.1435 389.095 89.3211C389.193 89.5084 389.278 89.6682 389.37 89.8563L389.371 89.8576C396.171 103.75 398.779 121.748 398.256 138.489C397.732 155.256 394.075 170.552 388.54 179.084L388.54 179.084C382.94 187.722 376.082 192.454 368.935 196.773C367.941 197.374 366.939 197.968 365.934 198.564C359.733 202.24 353.385 206.003 347.767 212.047L347.762 212.052C344.341 215.787 341.314 219.755 338.592 224.096C331.285 235.736 326.187 249.515 322.124 263.447C319.444 272.635 317.202 281.943 315.077 290.761C313.985 295.294 312.923 299.698 311.85 303.89L311.85 303.891C310.775 308.106 309.683 312.895 308.51 318.043C305.757 330.118 302.554 344.165 298.073 357.398C294.883 366.818 291.065 375.76 286.337 383.208C281.609 390.659 276.005 396.56 269.267 399.976L269.264 399.977C257.488 405.995 244.469 401.592 234.003 394.726ZM234.295 396.104C234.295 396.104 234.295 396.104 234.295 396.104C234.527 395.754 234.554 395.27 234.185 394.881C234.544 395.262 234.505 395.772 234.295 396.104Z" stroke="url(#paint11_linear_43_251)" stroke-width="2"/>
<path d="M316.82 307.789L316.819 307.792C315.7 312.202 314.559 317.212 313.333 322.599C310.396 335.497 306.966 350.56 302.156 364.747C298.752 374.785 294.675 384.322 289.629 392.268C284.582 400.214 278.601 406.515 271.409 410.164C258.938 416.429 245.11 411.78 233.87 404.39C233.833 404.357 233.793 404.326 233.751 404.298C225.798 399.034 218.566 392.614 211.298 386.114L210.729 385.605C203.669 379.289 196.554 372.926 188.768 367.616C180.754 361.951 173.22 358.669 165.669 357.119L165.666 357.118C148.312 353.608 131.64 359.599 111.399 368.451C89.8295 377.841 72.0308 373.891 58.0304 362.538C43.9591 351.127 33.6601 332.174 27.4052 311.499L27.4049 311.497C22.659 295.874 18.9894 279.523 17.886 262.593L17.8859 262.592C17.6257 258.64 17.3002 254.351 16.9553 249.806C15.566 231.496 13.8623 209.045 14.847 187.831C15.4612 174.598 17.1205 161.903 20.5336 151.041C23.9479 140.177 29.0921 131.226 36.6215 125.378L36.6244 125.376C39.2445 123.325 43.3887 123.388 48.7504 124.924C54.0443 126.441 60.1516 129.282 66.3851 132.254C66.8718 132.487 67.3592 132.719 67.8469 132.952C73.5677 135.686 79.3369 138.442 84.496 140.203C87.2998 141.16 89.9683 141.84 92.3877 142.055C94.8045 142.27 97.0444 142.029 98.9315 141.069L98.933 141.069C107.781 136.548 116.133 131.274 124.37 126.072C128.349 123.559 132.301 121.063 136.268 118.678C148.498 111.325 160.98 104.949 175.239 102.008C183.926 100.229 191.573 95.0764 198.612 88.1684C205.649 81.2615 212.147 72.5307 218.517 63.4943C220.03 61.3479 221.535 59.185 223.039 57.0239C227.886 50.0597 232.721 43.1131 237.761 36.7925C244.363 28.5131 251.248 21.3984 258.845 16.8143L258.845 16.814C260.883 15.5829 263.624 16.2729 267.21 18.8758C270.721 21.425 274.636 25.5228 278.722 30.1569C280.426 32.0898 282.168 34.1258 283.916 36.1679C286.312 38.9678 288.717 41.7792 291.049 44.3523C295.083 48.8054 299.051 52.7259 302.658 54.9061C305.786 56.9255 308.946 57.6333 311.69 55.7183L311.701 55.7104C334.475 39.3609 359.166 44.0158 379.661 57.4053C386.332 61.7805 393.149 67.4918 398.768 78.4639L398.778 78.4827L398.788 78.5011C398.916 78.727 399.066 79.0358 399.238 79.3886C399.268 79.4498 399.298 79.5124 399.329 79.5761C406.556 94.409 409.335 113.624 408.782 131.487C408.228 149.377 404.339 165.702 398.42 174.803L398.417 174.806C392.447 184.073 385.151 189.123 377.546 193.72C376.469 194.371 375.384 195.013 374.295 195.658C367.711 199.558 360.97 203.551 354.969 209.984C351.338 213.818 348.14 218.091 345.261 222.726C337.489 235.092 332.075 249.785 327.759 264.649C324.958 274.296 322.604 284.071 320.372 293.343C319.17 298.337 318.003 303.186 316.82 307.789Z" stroke="url(#paint12_linear_43_251)" stroke-width="2"/>
<path d="M186.013 374.767L186.013 374.767C171.947 364.928 159.209 361.691 146.063 362.671C132.979 363.646 119.561 368.797 104.139 375.56C81.1873 385.583 62.2625 381.353 47.3732 369.248C32.425 357.096 21.4814 336.945 14.7944 315.045C14.7887 315.02 14.7821 314.995 14.7745 314.97C9.7102 298.37 5.8106 280.89 4.56728 262.79C4.28825 258.538 3.93588 253.91 3.56189 248.997C2.08792 229.636 0.277959 205.861 1.29724 183.377C1.93586 169.29 3.68436 155.766 7.30127 144.2C10.9193 132.631 16.3817 123.102 24.3919 116.897L24.3946 116.895C27.1812 114.721 31.6037 114.819 37.3095 116.48C42.9443 118.12 49.4501 121.168 56.0859 124.351C56.5759 124.586 57.0667 124.821 57.5578 125.057C63.6773 127.997 69.8483 130.961 75.361 132.853C78.3428 133.876 81.177 134.602 83.743 134.834C86.3062 135.066 88.6744 134.812 90.6638 133.797L90.6652 133.797C100.001 129.018 108.828 123.446 117.541 117.947C121.823 115.244 126.079 112.558 130.353 109.993C143.372 102.178 156.671 95.4073 171.85 92.3063C181.051 90.4274 189.151 84.9528 196.607 77.6019C204.061 70.2521 210.942 60.9563 217.686 51.3316C219.297 49.032 220.901 46.7143 222.503 44.3985C227.624 36.9953 232.732 29.6109 238.055 22.8937C245.04 14.0777 252.326 6.50265 260.368 1.63184L260.368 1.63131C261.701 0.822334 263.286 0.791061 265.219 1.53558C267.176 2.28908 269.378 3.80117 271.774 5.89464C276.522 10.0422 281.772 16.2306 287.082 22.4905L287.222 22.6559C292.544 28.9301 297.927 35.2624 302.804 39.4375C305.241 41.5229 307.625 43.1367 309.879 43.9138C312.169 44.7036 314.41 44.6511 316.368 43.2622L316.37 43.2607C340.534 26.0287 366.747 30.9646 388.439 45.2517L388.444 45.2546C395.498 49.8455 402.739 56.0055 408.74 67.6933L408.74 67.6942C416.808 83.3645 419.942 103.993 419.427 123.245C418.912 142.521 414.745 160.198 408.41 170.004C402.049 179.837 394.285 185.211 386.207 190.106C385.075 190.793 383.934 191.471 382.789 192.151C375.79 196.31 368.636 200.56 362.277 207.395C350.034 220.52 342.054 238.26 336.075 256.803C331.852 269.902 328.605 283.484 325.571 296.175C324.312 301.439 323.09 306.55 321.851 311.409L321.85 311.411C320.668 316.082 319.462 321.4 318.164 327.125C315.059 340.815 311.426 356.836 306.323 371.924C302.711 382.605 298.381 392.754 293.019 401.202C287.655 409.652 281.294 416.344 273.64 420.193C260.224 426.935 245.471 421.843 233.553 413.924L233.552 413.923C225.133 408.34 217.477 401.526 209.795 394.601C209.436 394.277 209.076 393.953 208.716 393.628C201.408 387.036 194.043 380.393 186.013 374.767Z" stroke="url(#paint13_linear_43_251)" stroke-width="2"/>
</g>
</g>
<defs>
<filter id="filter0_d_43_251" x="-10" y="-14" width="440.481" height="444.327" filterUnits="userSpaceOnUse" color-interpolation-filters="sRGB">
<feFlood flood-opacity="0" result="BackgroundImageFix"/>
<feColorMatrix in="SourceAlpha" type="matrix" values="0 0 0 0 0 0 0 0 0 0 0 0 0 0 0 0 0 0 127 0" result="hardAlpha"/>
<feOffset dy="-4"/>
<feGaussianBlur stdDeviation="5"/>
<feComposite in2="hardAlpha" operator="out"/>
<feColorMatrix type="matrix" values="0 0 0 0 0 0 0 0 0 0 0 0 0 0 0 0 0 0 0.25 0"/>
<feBlend mode="normal" in2="BackgroundImageFix" result="effect1_dropShadow_43_251"/>
<feBlend mode="normal" in="SourceGraphic" in2="effect1_dropShadow_43_251" result="shape"/>
</filter>
<linearGradient id="paint0_linear_43_251" x1="281.724" y1="194.727" x2="160.164" y2="265.911" gradientUnits="userSpaceOnUse">
<stop stop-color="#EEFF41"/>
<stop offset="1" stop-color="#3D41FA"/>
</linearGradient>
<linearGradient id="paint1_linear_43_251" x1="291.993" y1="179.781" x2="141.069" y2="265.511" gradientUnits="userSpaceOnUse">
<stop stop-color="#EEFF41"/>
<stop offset="1" stop-color="#3D41FA"/>
</linearGradient>
<linearGradient id="paint2_linear_43_251" x1="302.234" y1="164.781" x2="122.059" y2="264.882" gradientUnits="userSpaceOnUse">
<stop stop-color="#EEFF41"/>
<stop offset="1" stop-color="#3D41FA"/>
</linearGradient>
<linearGradient id="paint3_linear_43_251" x1="312.668" y1="149.758" x2="103.305" y2="264.153" gradientUnits="userSpaceOnUse">
<stop stop-color="#EEFF41"/>
<stop offset="1" stop-color="#3D41FA"/>
</linearGradient>
<linearGradient id="paint4_linear_43_251" x1="322.93" y1="134.82" x2="84.3198" y2="263.856" gradientUnits="userSpaceOnUse">
<stop stop-color="#EEFF41"/>
<stop offset="1" stop-color="#3D41FA"/>
</linearGradient>
<linearGradient id="paint5_linear_43_251" x1="333.073" y1="119.852" x2="65.4559" y2="263.205" gradientUnits="userSpaceOnUse">
<stop stop-color="#EEFF41"/>
<stop offset="1" stop-color="#3D41FA"/>
</linearGradient>
<linearGradient id="paint6_linear_43_251" x1="343.344" y1="104.953" x2="46.6827" y2="262.751" gradientUnits="userSpaceOnUse">
<stop stop-color="#EEFF41"/>
<stop offset="1" stop-color="#3D41FA"/>
</linearGradient>
<linearGradient id="paint7_linear_43_251" x1="353.905" y1="90.0234" x2="27.9138" y2="262.573" gradientUnits="userSpaceOnUse">
<stop stop-color="#EEFF41"/>
<stop offset="1" stop-color="#3D41FA"/>
</linearGradient>
<linearGradient id="paint8_linear_43_251" x1="364.107" y1="74.8516" x2="8.89616" y2="261.716" gradientUnits="userSpaceOnUse">
<stop stop-color="#EEFF41"/>
<stop offset="1" stop-color="#3D41FA"/>
</linearGradient>
<linearGradient id="paint9_linear_43_251" x1="374.413" y1="60.0078" x2="-9.90291" y2="261.492" gradientUnits="userSpaceOnUse">
<stop stop-color="#EEFF41"/>
<stop offset="1" stop-color="#3D41FA"/>
</linearGradient>
<linearGradient id="paint10_linear_43_251" x1="384.536" y1="44.9766" x2="-29.0007" y2="260.981" gradientUnits="userSpaceOnUse">
<stop stop-color="#EEFF41"/>
<stop offset="1" stop-color="#3D41FA"/>
</linearGradient>
<linearGradient id="paint11_linear_43_251" x1="394.86" y1="29.9922" x2="-47.797" y2="260.491" gradientUnits="userSpaceOnUse">
<stop stop-color="#EEFF41"/>
<stop offset="1" stop-color="#3D41FA"/>
</linearGradient>
<linearGradient id="paint12_linear_43_251" x1="405.104" y1="15.2188" x2="-66.4308" y2="260.044" gradientUnits="userSpaceOnUse">
<stop stop-color="#EEFF41"/>
<stop offset="1" stop-color="#3D41FA"/>
</linearGradient>
<linearGradient id="paint13_linear_43_251" x1="415.446" y1="1.59824e-05" x2="-85.4208" y2="259.376" gradientUnits="userSpaceOnUse">
<stop stop-color="#EEFF41"/>
<stop offset="1" stop-color="#3D41FA"/>
</linearGradient>
<clipPath id="clip0_43_251">
<rect width="255" height="205" fill="white"/>
</clipPath>
</defs>
</svg>
