<svg width="26" height="26" viewBox="0 0 26 26" fill="none" xmlns="http://www.w3.org/2000/svg">
<path d="M12.0101 0.778302C12.2621 -0.259458 13.7379 -0.259457 13.9899 0.778304L15.1659 5.62162C15.3286 6.292 16.0967 6.61013 16.6858 6.25119L20.9421 3.65798C21.8541 3.10234 22.8977 4.14595 22.342 5.05793L19.7488 9.3142C19.3899 9.90332 19.708 10.6714 20.3784 10.8341L25.2217 12.0101C26.2595 12.2621 26.2595 13.7379 25.2217 13.9899L20.3784 15.1659C19.708 15.3286 19.3899 16.0967 19.7488 16.6858L22.342 20.9421C22.8977 21.8541 21.854 22.8977 20.9421 22.342L16.6858 19.7488C16.0967 19.3899 15.3286 19.708 15.1659 20.3784L13.9899 25.2217C13.7379 26.2595 12.2621 26.2595 12.0101 25.2217L10.8341 20.3784C10.6714 19.708 9.90332 19.3899 9.3142 19.7488L5.05793 22.342C4.14595 22.8977 3.10234 21.854 3.65798 20.9421L6.25119 16.6858C6.61013 16.0967 6.29199 15.3286 5.62162 15.1659L0.778302 13.9899C-0.259459 13.7379 -0.259457 12.2621 0.778304 12.0101L5.62162 10.8341C6.292 10.6714 6.61013 9.90332 6.25119 9.3142L3.65798 5.05793C3.10234 4.14595 4.14595 3.10234 5.05793 3.65798L9.3142 6.25119C9.90332 6.61013 10.6714 6.29199 10.8341 5.62162L12.0101 0.778302Z" fill="white"/>
</svg>
