<svg width="29" height="29" viewBox="0 0 29 29" fill="none" xmlns="http://www.w3.org/2000/svg">
<path d="M13.555 0.643135C13.8932 -0.214351 15.1067 -0.214351 15.4449 0.643135L18.9351 9.49259C19.0384 9.75438 19.2456 9.96161 19.5074 10.0649L28.3568 13.555C29.2143 13.8932 29.2143 15.1068 28.3568 15.445L19.5074 18.9351C19.2456 19.0384 19.0384 19.2456 18.9351 19.5074L15.4449 28.3569C15.1067 29.2144 13.8932 29.2144 13.555 28.3569L10.0648 19.5074C9.96158 19.2456 9.75435 19.0384 9.49255 18.9351L0.643104 15.445C-0.214382 15.1068 -0.214382 13.8932 0.643104 13.555L9.49255 10.0649C9.75435 9.96161 9.96158 9.75438 10.0648 9.49259L13.555 0.643135Z" fill="#EEFF41"/>
</svg>
