<svg width="300" height="52" viewBox="0 0 300 52" fill="none" xmlns="http://www.w3.org/2000/svg">
<path d="M292.855 51.7048C288.084 40.5011 282.799 31.7221 274.71 25.3257C268.175 20.2325 260.615 18.1703 253.686 14.0497C253.528 13.9362 253.64 13.6088 253.812 13.638C270.129 14.7607 289.174 27.6932 293.538 51.1278C293.614 51.747 293.059 52.2592 292.855 51.7048Z" fill="white"/>
<path d="M296.322 34.9245C293.209 27.6127 289.76 21.8833 284.48 17.7088C280.216 14.3849 275.282 13.0391 270.76 10.3498C270.656 10.2758 270.73 10.0621 270.842 10.0812C281.491 10.8139 293.92 19.2539 296.768 34.5479C296.818 34.952 296.455 35.2863 296.322 34.9245Z" fill="white"/>
</svg>
