<svg width="26" height="26" viewBox="0 0 26 26" fill="none" xmlns="http://www.w3.org/2000/svg">
<path d="M12.0101 0.778301C12.2621 -0.259458 13.7379 -0.259456 13.9899 0.778302L15.1659 5.62161C15.3286 6.29198 16.0967 6.61011 16.6858 6.25118L20.9421 3.65797C21.854 3.10234 22.8976 4.14594 22.342 5.05792L19.7488 9.31418C19.3899 9.9033 19.708 10.6713 20.3784 10.8341L25.2217 12.0101C26.2594 12.262 26.2594 13.7379 25.2217 13.9899L20.3784 15.1658C19.708 15.3286 19.3899 16.0966 19.7488 16.6858L22.342 20.942C22.8976 21.854 21.854 22.8976 20.9421 22.342L16.6858 19.7488C16.0967 19.3898 15.3286 19.708 15.1659 20.3783L13.9899 25.2216C13.7379 26.2594 12.2621 26.2594 12.0101 25.2216L10.8341 20.3783C10.6714 19.708 9.90333 19.3898 9.31421 19.7488L5.05795 22.342C4.14597 22.8976 3.10237 21.854 3.658 20.942L6.25121 16.6858C6.61014 16.0966 6.29201 15.3286 5.62164 15.1658L0.778332 13.9899C-0.259427 13.7379 -0.259425 12.262 0.778333 12.0101L5.62164 10.8341C6.29201 10.6713 6.61014 9.9033 6.25121 9.31418L3.658 5.05791C3.10237 4.14594 4.14597 3.10234 5.05795 3.65797L9.31421 6.25118C9.90333 6.61011 10.6714 6.29198 10.8341 5.6216L12.0101 0.778301Z" fill="white"/>
</svg>
