<svg width="29" height="29" viewBox="0 0 29 29" fill="none" xmlns="http://www.w3.org/2000/svg">
<path d="M13.555 0.64312C13.8932 -0.214366 15.1068 -0.214366 15.445 0.64312L18.9351 9.49257C19.0384 9.75436 19.2456 9.9616 19.5074 10.0648L28.3569 13.555C29.2144 13.8932 29.2144 15.1068 28.3569 15.4449L19.5074 18.9351C19.2456 19.0384 19.0384 19.2456 18.9351 19.5074L15.445 28.3568C15.1068 29.2143 13.8932 29.2143 13.555 28.3568L10.0649 19.5074C9.96161 19.2456 9.75438 19.0384 9.49259 18.9351L0.643135 15.4449C-0.214351 15.1068 -0.214351 13.8932 0.643135 13.555L9.49259 10.0648C9.75438 9.9616 9.96161 9.75437 10.0649 9.49257L13.555 0.64312Z" fill="#EEFF41"/>
</svg>
