<svg width="29" height="29" viewBox="0 0 29 29" fill="none" xmlns="http://www.w3.org/2000/svg">
<path d="M13.555 0.643106C13.8932 -0.214382 15.1068 -0.214382 15.445 0.643106L18.9351 9.49257C19.0384 9.75437 19.2456 9.9616 19.5074 10.0649L28.3569 13.555C29.2144 13.8932 29.2144 15.1068 28.3569 15.445L19.5074 18.9351C19.2456 19.0384 19.0384 19.2456 18.9351 19.5074L15.445 28.3569C15.1068 29.2144 13.8932 29.2144 13.555 28.3569L10.0649 19.5074C9.9616 19.2456 9.75437 19.0384 9.49257 18.9351L0.643106 15.445C-0.214382 15.1068 -0.214382 13.8932 0.643106 13.555L9.49257 10.0649C9.75437 9.9616 9.9616 9.75437 10.0649 9.49257L13.555 0.643106Z" fill="#EEFF41"/>
</svg>
