<svg width="300" height="52" viewBox="0 0 300 52" fill="none" xmlns="http://www.w3.org/2000/svg">
<path d="M280.662 1.88691C278.107 6.33265 275.516 10.7946 272.962 15.2403C272.692 15.713 272.735 16.3094 273.179 16.6376C273.57 16.9453 274.278 16.8907 274.547 16.418C277.102 11.9722 279.693 7.5103 282.247 3.06456C282.517 2.59186 282.474 1.99554 282.03 1.66727C281.655 1.39641 280.931 1.41421 280.662 1.88691Z" fill="white"/>
<path d="M262.073 1.71368C263.658 5.17803 264.45 8.99885 264.253 12.8243C264.21 14.1185 266.158 14.342 266.201 13.0477C266.378 8.87923 265.603 4.69913 263.823 0.882907C263.35 -0.31115 261.547 0.499016 262.073 1.71368Z" fill="white"/>
<path d="M297.504 23.2018C293.125 25.9177 288.729 28.5969 284.35 31.3129C283.913 31.5971 283.608 32.086 283.847 32.6381C284.038 33.0798 284.71 33.4375 285.146 33.1533C289.526 30.4373 293.921 27.7581 298.3 25.0422C298.737 24.7579 299.042 24.269 298.803 23.7169C298.612 23.2752 297.941 22.9175 297.504 23.2018Z" fill="white"/>
<path d="M7.14532 51.7048C11.9161 40.5011 17.2006 31.7221 25.2903 25.3257C31.8249 20.2325 39.3848 18.1703 46.3139 14.0497C46.4721 13.9362 46.3597 13.6088 46.1877 13.638C29.8706 14.7607 10.8265 27.6932 6.4618 51.1278C6.38612 51.747 6.94119 52.2592 7.14532 51.7048Z" fill="white"/>
<path d="M3.67794 34.9245C6.79143 27.6127 10.2403 21.8833 15.5198 17.7088C19.7844 14.3849 24.7182 13.0391 29.2403 10.3498C29.3436 10.2758 29.2702 10.0621 29.1579 10.0812C18.509 10.8139 6.08035 19.2539 3.23186 34.5479C3.18246 34.952 3.54472 35.2863 3.67794 34.9245Z" fill="white"/>
</svg>
